<svg xmlns="http://www.w3.org/2000/svg" viewBox="0 0 512 512"><defs><filter id="shadow" x="-25%" y="-25%" width="150%" height="150%"><feDropShadow dx="0" dy="8" stdDeviation="10" flood-color="#000000" flood-opacity="0.9"/></filter></defs><path d="M256 32C192 32 0 64 0 192c0 35.3 28.7 64 64 64V432c0 26.5 21.5 48 48 48H400c26.5 0 48-21.5 48-48V256c35.3 0 64-28.7 64-64C512 64 320 32 256 32z" fill="#0a0d12" stroke="#0a0d12" stroke-width="44" stroke-linejoin="round" opacity="0.78" filter="url(#shadow)"/><path d="M256 32C192 32 0 64 0 192c0 35.3 28.7 64 64 64V432c0 26.5 21.5 48 48 48H400c26.5 0 48-21.5 48-48V256c35.3 0 64-28.7 64-64C512 64 320 32 256 32z" fill="#f2efe6" stroke="#17202a" stroke-width="18" stroke-linejoin="round"/></svg>