<svg xmlns="http://www.w3.org/2000/svg" viewBox="0 0 384 512"><defs><filter id="shadow" x="-25%" y="-25%" width="150%" height="150%"><feDropShadow dx="0" dy="8" stdDeviation="10" flood-color="#000000" flood-opacity="0.9"/></filter></defs><path d="M176 0c-26.5 0-48 21.5-48 48l0 80-80 0c-26.5 0-48 21.5-48 48l0 32c0 26.5 21.5 48 48 48l80 0 0 208c0 26.5 21.5 48 48 48l32 0c26.5 0 48-21.5 48-48l0-208 80 0c26.5 0 48-21.5 48-48l0-32c0-26.5-21.5-48-48-48l-80 0 0-80c0-26.5-21.5-48-48-48L176 0z" fill="#0a0d12" stroke="#0a0d12" stroke-width="44" stroke-linejoin="round" opacity="0.78" filter="url(#shadow)"/><path d="M176 0c-26.5 0-48 21.5-48 48l0 80-80 0c-26.5 0-48 21.5-48 48l0 32c0 26.5 21.5 48 48 48l80 0 0 208c0 26.5 21.5 48 48 48l32 0c26.5 0 48-21.5 48-48l0-208 80 0c26.5 0 48-21.5 48-48l0-32c0-26.5-21.5-48-48-48l-80 0 0-80c0-26.5-21.5-48-48-48L176 0z" fill="#f2efe6" stroke="#17202a" stroke-width="18" stroke-linejoin="round"/></svg>