<svg xmlns="http://www.w3.org/2000/svg" viewBox="0 0 640 512"><defs><filter id="shadow" x="-25%" y="-25%" width="150%" height="150%"><feDropShadow dx="0" dy="8" stdDeviation="10" flood-color="#000000" flood-opacity="0.9"/></filter></defs><path d="M96 64c0-17.7 14.3-32 32-32l32 0c17.7 0 32 14.3 32 32l0 160 0 64 0 160c0 17.7-14.3 32-32 32l-32 0c-17.7 0-32-14.3-32-32l0-64-32 0c-17.7 0-32-14.3-32-32l0-64c-17.7 0-32-14.3-32-32s14.3-32 32-32l0-64c0-17.7 14.3-32 32-32l32 0 0-64zm448 0l0 64 32 0c17.7 0 32 14.3 32 32l0 64c17.7 0 32 14.3 32 32s-14.3 32-32 32l0 64c0 17.7-14.3 32-32 32l-32 0 0 64c0 17.7-14.3 32-32 32l-32 0c-17.7 0-32-14.3-32-32l0-160 0-64 0-160c0-17.7 14.3-32 32-32l32 0c17.7 0 32 14.3 32 32zM416 224l0 64-192 0 0-64 192 0z" fill="#0a0d12" stroke="#0a0d12" stroke-width="44" stroke-linejoin="round" opacity="0.78" filter="url(#shadow)"/><path d="M96 64c0-17.7 14.3-32 32-32l32 0c17.7 0 32 14.3 32 32l0 160 0 64 0 160c0 17.7-14.3 32-32 32l-32 0c-17.7 0-32-14.3-32-32l0-64-32 0c-17.7 0-32-14.3-32-32l0-64c-17.7 0-32-14.3-32-32s14.3-32 32-32l0-64c0-17.7 14.3-32 32-32l32 0 0-64zm448 0l0 64 32 0c17.7 0 32 14.3 32 32l0 64c17.7 0 32 14.3 32 32s-14.3 32-32 32l0 64c0 17.7-14.3 32-32 32l-32 0 0 64c0 17.7-14.3 32-32 32l-32 0c-17.7 0-32-14.3-32-32l0-160 0-64 0-160c0-17.7 14.3-32 32-32l32 0c17.7 0 32 14.3 32 32zM416 224l0 64-192 0 0-64 192 0z" fill="#f2efe6" stroke="#17202a" stroke-width="18" stroke-linejoin="round"/></svg>