<svg xmlns="http://www.w3.org/2000/svg" viewBox="0 0 448 512"><defs><filter id="shadow" x="-25%" y="-25%" width="150%" height="150%"><feDropShadow dx="0" dy="8" stdDeviation="10" flood-color="#000000" flood-opacity="0.9"/></filter></defs><path d="M144 144l0 48 160 0 0-48c0-44.2-35.8-80-80-80s-80 35.8-80 80zM80 192l0-48C80 64.5 144.5 0 224 0s144 64.5 144 144l0 48 16 0c35.3 0 64 28.7 64 64l0 192c0 35.3-28.7 64-64 64L64 512c-35.3 0-64-28.7-64-64L0 256c0-35.3 28.7-64 64-64l16 0z" fill="#0a0d12" stroke="#0a0d12" stroke-width="44" stroke-linejoin="round" opacity="0.78" filter="url(#shadow)"/><path d="M144 144l0 48 160 0 0-48c0-44.2-35.8-80-80-80s-80 35.8-80 80zM80 192l0-48C80 64.5 144.5 0 224 0s144 64.5 144 144l0 48 16 0c35.3 0 64 28.7 64 64l0 192c0 35.3-28.7 64-64 64L64 512c-35.3 0-64-28.7-64-64L0 256c0-35.3 28.7-64 64-64l16 0z" fill="#f2efe6" stroke="#17202a" stroke-width="18" stroke-linejoin="round"/></svg>