<svg xmlns="http://www.w3.org/2000/svg" viewBox="0 0 384 512"><defs><filter id="shadow" x="-25%" y="-25%" width="150%" height="150%"><feDropShadow dx="0" dy="8" stdDeviation="10" flood-color="#000000" flood-opacity="0.9"/></filter></defs><path d="M180.7 4.7c6.2-6.2 16.4-6.2 22.6 0l80 80c2.5 2.5 4.1 5.8 4.6 9.3l40.2 322L55.9 416 96.1 94c.4-3.5 2-6.8 4.6-9.3l80-80zM152 272c-13.3 0-24 10.7-24 24s10.7 24 24 24l80 0c13.3 0 24-10.7 24-24s-10.7-24-24-24l-80 0zM32 448l320 0c17.7 0 32 14.3 32 32s-14.3 32-32 32L32 512c-17.7 0-32-14.3-32-32s14.3-32 32-32z" fill="#0a0d12" stroke="#0a0d12" stroke-width="44" stroke-linejoin="round" opacity="0.78" filter="url(#shadow)"/><path d="M180.7 4.7c6.2-6.2 16.4-6.2 22.6 0l80 80c2.5 2.5 4.1 5.8 4.6 9.3l40.2 322L55.9 416 96.1 94c.4-3.5 2-6.8 4.6-9.3l80-80zM152 272c-13.3 0-24 10.7-24 24s10.7 24 24 24l80 0c13.3 0 24-10.7 24-24s-10.7-24-24-24l-80 0zM32 448l320 0c17.7 0 32 14.3 32 32s-14.3 32-32 32L32 512c-17.7 0-32-14.3-32-32s14.3-32 32-32z" fill="#f2efe6" stroke="#17202a" stroke-width="18" stroke-linejoin="round"/></svg>