<svg xmlns="http://www.w3.org/2000/svg" viewBox="0 0 512 512"><defs><filter id="shadow" x="-25%" y="-25%" width="150%" height="150%"><feDropShadow dx="0" dy="8" stdDeviation="10" flood-color="#000000" flood-opacity="0.9"/></filter></defs><path d="M504.3 11.1C493.3-1.6 474.5-3.7 461 6.2L252.3 160l144.9 0L502.6 54.6c11.8-11.8 12.6-30.8 1.6-43.5zM32 192c-17.7 0-32 14.3-32 32s14.3 32 32 32c0 82.5 43.4 147.7 123.9 176.2c-11.1 13.9-19.4 30.3-23.9 48.1C127.6 497.4 142.3 512 160 512l192 0c17.7 0 32.4-14.6 28.1-31.7c-4.5-17.8-12.8-34.1-23.9-48.1C436.6 403.7 480 338.5 480 256c17.7 0 32-14.3 32-32s-14.3-32-32-32L32 192z" fill="#0a0d12" stroke="#0a0d12" stroke-width="44" stroke-linejoin="round" opacity="0.78" filter="url(#shadow)"/><path d="M504.3 11.1C493.3-1.6 474.5-3.7 461 6.2L252.3 160l144.9 0L502.6 54.6c11.8-11.8 12.6-30.8 1.6-43.5zM32 192c-17.7 0-32 14.3-32 32s14.3 32 32 32c0 82.5 43.4 147.7 123.9 176.2c-11.1 13.9-19.4 30.3-23.9 48.1C127.6 497.4 142.3 512 160 512l192 0c17.7 0 32.4-14.6 28.1-31.7c-4.5-17.8-12.8-34.1-23.9-48.1C436.6 403.7 480 338.5 480 256c17.7 0 32-14.3 32-32s-14.3-32-32-32L32 192z" fill="#f2efe6" stroke="#17202a" stroke-width="18" stroke-linejoin="round"/></svg>