<svg xmlns="http://www.w3.org/2000/svg" viewBox="0 0 640 512"><defs><filter id="shadow" x="-25%" y="-25%" width="150%" height="150%"><feDropShadow dx="0" dy="8" stdDeviation="10" flood-color="#000000" flood-opacity="0.9"/></filter></defs><path d="M32 32C14.3 32 0 46.3 0 64L0 448c0 17.7 14.3 32 32 32s32-14.3 32-32l0-181.7L149.2 96 64 96l0-32c0-17.7-14.3-32-32-32zM405.2 96l-74.3 0-5.4 10.7L234.8 288l74.3 0 5.4-10.7L405.2 96zM362.8 288l74.3 0 5.4-10.7L533.2 96l-74.3 0-5.4 10.7L362.8 288zM202.8 96l-5.4 10.7L106.8 288l74.3 0 5.4-10.7L277.2 96l-74.3 0zm288 192l85.2 0 0 160c0 17.7 14.3 32 32 32s32-14.3 32-32l0-384c0-17.7-14.3-32-32-32s-32 14.3-32 32l0 53.7L490.8 288z" fill="#0a0d12" stroke="#0a0d12" stroke-width="44" stroke-linejoin="round" opacity="0.78" filter="url(#shadow)"/><path d="M32 32C14.3 32 0 46.3 0 64L0 448c0 17.7 14.3 32 32 32s32-14.3 32-32l0-181.7L149.2 96 64 96l0-32c0-17.7-14.3-32-32-32zM405.2 96l-74.3 0-5.4 10.7L234.8 288l74.3 0 5.4-10.7L405.2 96zM362.8 288l74.3 0 5.4-10.7L533.2 96l-74.3 0-5.4 10.7L362.8 288zM202.8 96l-5.4 10.7L106.8 288l74.3 0 5.4-10.7L277.2 96l-74.3 0zm288 192l85.2 0 0 160c0 17.7 14.3 32 32 32s32-14.3 32-32l0-384c0-17.7-14.3-32-32-32s-32 14.3-32 32l0 53.7L490.8 288z" fill="#f2efe6" stroke="#17202a" stroke-width="18" stroke-linejoin="round"/></svg>