<svg xmlns="http://www.w3.org/2000/svg" viewBox="0 0 512 512"><defs><filter id="shadow" x="-25%" y="-25%" width="150%" height="150%"><feDropShadow dx="0" dy="8" stdDeviation="10" flood-color="#000000" flood-opacity="0.9"/></filter></defs><path d="M416 398.9c58.5-41.1 96-104.1 96-174.9C512 100.3 397.4 0 256 0S0 100.3 0 224c0 70.7 37.5 133.8 96 174.9c0 .4 0 .7 0 1.1l0 64c0 26.5 21.5 48 48 48l48 0 0-48c0-8.8 7.2-16 16-16s16 7.2 16 16l0 48 64 0 0-48c0-8.8 7.2-16 16-16s16 7.2 16 16l0 48 48 0c26.5 0 48-21.5 48-48l0-64c0-.4 0-.7 0-1.1zM96 256a64 64 0 1 1 128 0A64 64 0 1 1 96 256zm256-64a64 64 0 1 1 0 128 64 64 0 1 1 0-128z" fill="#0a0d12" stroke="#0a0d12" stroke-width="44" stroke-linejoin="round" opacity="0.78" filter="url(#shadow)"/><path d="M416 398.9c58.5-41.1 96-104.1 96-174.9C512 100.3 397.4 0 256 0S0 100.3 0 224c0 70.7 37.5 133.8 96 174.9c0 .4 0 .7 0 1.1l0 64c0 26.5 21.5 48 48 48l48 0 0-48c0-8.8 7.2-16 16-16s16 7.2 16 16l0 48 64 0 0-48c0-8.8 7.2-16 16-16s16 7.2 16 16l0 48 48 0c26.5 0 48-21.5 48-48l0-64c0-.4 0-.7 0-1.1zM96 256a64 64 0 1 1 128 0A64 64 0 1 1 96 256zm256-64a64 64 0 1 1 0 128 64 64 0 1 1 0-128z" fill="#f2efe6" stroke="#17202a" stroke-width="18" stroke-linejoin="round"/></svg>